<svg xmlns="http://www.w3.org/2000/svg" width="122.209" height="82" viewBox="0 0 122.209 82">
  <path id="_207-eye" data-name="207-eye" d="M60,3C33.832,3,11.145,19.256,0,43,11.145,66.744,33.833,83,60,83s48.855-16.256,60-40C108.855,19.256,86.168,3,60,3ZM89.587,24.216A59.2,59.2,0,0,1,107.1,43,59.03,59.03,0,0,1,89.587,61.784a52.091,52.091,0,0,1-59.167,0A59.2,59.2,0,0,1,12.907,43,59.03,59.03,0,0,1,30.42,24.216c.457-.312.923-.616,1.387-.912A33.756,33.756,0,0,0,30,34.256c0,17.672,13.433,32,30,32s30-14.328,30-32A33.756,33.756,0,0,0,88.192,23.3c.465.3.93.6,1.388.912h0ZM60,31c0,6.624-5.04,12-11.25,12S37.5,37.624,37.5,31s5.04-12,11.25-12S60,24.376,60,31Z" transform="translate(1.105 -2)" fill="rgba(0,180,238,0.3)" stroke="#00526e" stroke-width="2"/>
</svg>
